# xmcd
#
# Track frame offsets: 
#        150
#        11417
#        25287
#        38902
#        53280
#        68870
#        84225
#        97945
#        113645
#        128510
#        142465
#        153842
#        166225
#        183057
#        198555
#        214380
#
# Disc length: 3000 seconds
#
# Revision: 0
# Processed by: cddbd v1.5.2PL0 Copyright (c) Steve Scherf et al.
# Submitted via: ExactAudioCopyFreeDBPlugin 1.0
#
DISCID=c90bb610
DTITLE=Various Artist - Kickin Country [CD1]
DYEAR=2003
DGENRE=Country
TTITLE0=John Michael Montgomery - Sold (The Grundy County Auction Inci
TTITLE0=dent)
TTITLE1=Joe Diffie - Thrid Rock From The Sun
TTITLE2=Tracy Byrd - Watermelon Crawl
TTITLE3=Mindy McCready - Guys Do It All The Time
TTITLE4=Little Texas - God Blessed Texas
TTITLE5=Billy Ray Cyrus - Achy Breaky Heart
TTITLE6=Michael Peterson - Drink, Swear, Steal and Lie
TTITLE7=Kathy Mattea - Walking Away A Winner
TTITLE8=Sawyer Brown - Thank God For You
TTITLE9=Tracy Lawrence - If The World Had A Front Porch
TTITLE10=Bryan White - So Much For Pretending
TTITLE11=Lorrie Morgan - What Part Of No
TTITLE12=David Lee Murphy - Dust On The Bottle
TTITLE13=The Wilkinsons - Jimmy's Got A GirlFriend
TTITLE14=Lila McCann - With You
TTITLE15=Dwight Yoakam - Crazy Little Thing Called Love
EXTD=
EXTT0=
EXTT1=
EXTT2=
EXTT3=
EXTT4=
EXTT5=
EXTT6=
EXTT7=
EXTT8=
EXTT9=
EXTT10=
EXTT11=
EXTT12=
EXTT13=
EXTT14=
EXTT15=
PLAYORDER=
